<?xml version="1.0" encoding="utf-8"?>
<!-- Generator: Adobe Illustrator 27.5.0, SVG Export Plug-In . SVG Version: 6.00 Build 0)  -->
<svg version="1.1" id="Capa_1" xmlns="http://www.w3.org/2000/svg" xmlns:xlink="http://www.w3.org/1999/xlink" x="0px" y="0px"
	 viewBox="0 0 598.4 250.6" enable-background="new 0 0 598.4 250.6" xml:space="preserve">
<g transform="translate(-715.559 -2396.873)">
	<path fill="#51D5C4" d="M750,2647.5c-3.9,0.1-7.7-0.6-11.4-1.9c-2.8-1-5.4-2.6-7.6-4.7c-1.8-1.7-3.3-3.8-4.4-6.1
		c-0.9-1.9-1.5-4-1.7-6.1c-0.2-0.9-0.3-1.7-0.3-2.6c-0.2-2.2-0.1-4.4,0.2-6.6c2.4,1.6,5,2.7,7.7,3.5c3.5,0.9,7.1,1.4,10.7,1.3
		l-0.4-0.2h0c10.7,0,20.6-5.7,26-14.9l72.1-123.2c0.4-0.7,0.9-1.4,1.5-2c0.6-0.5,1.2-1,1.9-1.4c2.7-1.5,6-1.5,8.7,0
		c0.7,0.4,1.3,0.9,1.9,1.4c0.6,0.6,1.1,1.2,1.5,1.9l61.1,105l-60.7-77.2c-0.8-1.2-2-2.2-3.3-2.9c-2.8-1.4-6.1-1.2-8.7,0.4
		c-1.5,0.9-2.7,2.2-3.4,3.8L778.3,2630c-4.6,9.7-14,16.2-24.7,17.2l0.4,0.1C752.6,2647.4,751.3,2647.5,750,2647.5z M973.9,2635.9
		c-3.1,0-6.2-0.5-9.3-1.3c-3.1-0.9-6-2.1-8.8-3.5c-2.8-1.5-5.5-3.1-8-5c-2.4-1.8-4.6-3.7-6.8-5.7c5,2.6,10.5,3.9,16.1,3.9h0h4.2
		c2.8,0,5.6-0.3,8.3-1c4.3-1.1,8.4-2.7,12.4-4.7c6.7-3.3,13.2-7,19.4-11c8.4-5.2,18-11.7,29.4-19.8c0.6-0.4,1.3-0.8,2-1
		c0.6-0.2,1.3-0.3,2-0.3c0.9,0,1.8,0.2,2.6,0.5c0.8,0.3,1.6,0.8,2.2,1.5c-6.9,6.5-12.7,12-17.8,16.8l0,0c-5.9,5.6-10.5,10-14.5,13.7
		c-3.3,3.1-6.8,6-10.4,8.7c-2.6,2-5.5,3.7-8.5,5.1c-2.9,1.2-5.9,2.1-9,2.7l-0.5,0.1C977.2,2635.7,975.6,2635.9,973.9,2635.9
		L973.9,2635.9z M1306.9,2593.9L1306.9,2593.9c-0.7-3.7-2-7.2-4-10.3l-84.1-146.7c-7.9-13.8-22.7-22.4-38.6-22.4h-8.7
		c-15.9,0-30.6,8.5-38.5,22.2l-19.2,33.1c-3.2,5.4-10,7.5-15.6,4.8l-92.7-44.4l86.8,28.5c5.9,2.2,12.5-0.5,15.2-6.2l15.9-26.6
		c2-3.8,4.6-7.2,7.7-10.1c3.3-3.1,7-5.8,11-8c4-2.3,8.2-4.1,12.6-5.5c2.1-0.7,4.2-1.2,6.4-1.7c2-0.4,4.1-0.7,6.1-0.9
		c3.7-0.4,7.4-0.6,11.1-0.6c4.5,0,9,0.4,13.4,1.1c2.3,0.4,4.7,0.9,6.9,1.6c2.4,0.7,4.7,1.5,6.9,2.5c2.3,1,4.6,2.2,6.7,3.6
		c2.3,1.4,4.4,3,6.5,4.8c2.2,1.9,4.2,4,6,6.2c2,2.4,3.8,5,5.5,7.7l78,131.1c1.3,1.8,2.5,3.8,3.4,5.8c1.5,3.3,2.3,6.8,2.4,10.4
		c0.1,1.8,0,3.7-0.1,5.5c-0.1,1.5-0.4,2.9-0.8,4.3c-0.7,2.4-1.8,4.6-3.3,6.6C1308.8,2591.8,1307.9,2592.9,1306.9,2593.9
		L1306.9,2593.9z M1024.3,2497.5l-110.8-35.8c-4-1.5-7.7-3.5-11.1-6.1l-11.7-20.2c-0.1-0.1-0.2-0.3-0.2-0.4
		c-0.1-2.9,0.3-5.8,1.1-8.5c0.8-2.5,1.9-5,3.3-7.2c2.7-4,6.1-7.5,10.2-10.1c-2.3,4.4-3.2,9.7-2.7,15.9l0.1-0.4
		c0.3,2.7,1,5.3,2.2,7.7c1.2,2.5,2.8,4.8,4.7,6.9c3.8,4.2,8.4,7.6,13.5,10L1024.3,2497.5z"/>
	<path fill="#643EBB" d="M1254.6,2607.8l-70.9-121.7c-2.5-4.3-8-5.7-12.3-3.2c-1.3,0.8-2.5,1.9-3.2,3.2l-71.4,121.9
		c-5.9,10.1-16.7,16.2-28.3,16.2c-9.5,0-21-3-25.9-11.2c0,0-5.4-9.3-2-16.4c3.4-7.1-3.9-13.1-9.8-8.9
		c-47.2,33.5-59.9,36.5-69.5,36.5h-4.2c-12.6,0-24.2-6.7-30.6-17.6l-70.2-120.5c-2.5-4.3-8-5.7-12.3-3.2c-1.3,0.8-2.5,1.9-3.2,3.2
		l-72.1,123.2c-5.4,9.3-15.3,14.9-26.1,14.9l0.4,0.2c-21,0-27.5-12.9-27.5-21c-0.5-6,0.9-12.1,3.9-17.3l86.3-149.5
		c7.8-13.5,22.3-21.9,37.9-21.9h10.8c14.9,0,28.7,8,36.2,20.9l70.5,121.7c2.9,4.6,8.9,6.1,13.6,3.2c0.1,0,0.1-0.1,0.2-0.1l63.8-42.8
		c3.6-2.4,4.6-7.2,2.2-10.8c-0.8-1.2-1.9-2.1-3.1-2.7L923,2449.4c-9.7-4.6-19.4-14-20.4-24.7l-0.1,0.4c-1.8-20.9,13.3-27.3,21.3-28
		c6.1-0.7,12.4,0.2,18,2.7l156.3,74.8c5.7,2.7,12.5,0.6,15.6-4.8l19.2-33.1c8-13.7,22.7-22.2,38.5-22.2h8.7c16,0,30.7,8.5,38.6,22.4
		l84.1,146.7c3.1,5,4.6,10.8,4.4,16.7c-0.4,8.3-2.5,12.4-5.7,16c-1.2,1.4-2.6,2.7-4.1,3.8c-4.3,2.9-9.3,4.5-14.5,4.4
		C1278.1,2624.6,1265.1,2624.7,1254.6,2607.8z"/>
</g>
</svg>
