<?xml version="1.0" encoding="utf-8"?>
<!-- Generator: Adobe Illustrator 27.5.0, SVG Export Plug-In . SVG Version: 6.00 Build 0)  -->
<svg version="1.1" id="Capa_1" xmlns="http://www.w3.org/2000/svg" xmlns:xlink="http://www.w3.org/1999/xlink" x="0px" y="0px"
	 viewBox="0 0 326 150.5" style="enable-background:new 0 0 326 150.5;" xml:space="preserve">
<style type="text/css">
	.st0{fill-rule:evenodd;clip-rule:evenodd;}
	.st1{fill:#EF3942;}
	.st2{fill:#0C9647;}
	.st3{fill:#FDD700;}
	.st4{fill:#2C70B8;}
</style>
<path d="M305.1,32.2c0-6,4.8-11,10.5-11c5.8,0,10.5,4.9,10.5,11c0,6-4.8,11-10.5,11C309.8,43.2,305.1,38.2,305.1,32.2z"/>
<path d="M283.8,80.5c-5.5-5.8-10.7-8.4-17.1-8.4c-12.2,0-21.9,10.7-21.8,24.3v0.2c0,13.5,9.9,24.6,22.1,24.6
	c5.8,0,10.7-2.2,15.7-7.1l13.6,13.8c-8.4,8.7-18,13-29.5,13c-22.6,0-41.1-19.8-41.1-44.1v-0.2c0-24.3,18.4-44.1,41.2-44.1
	c14.5,0,23.7,6.8,30.1,13.5L283.8,80.5z"/>
<path class="st0" d="M215.5,59c0,7.5-2.5,15.1-8,20.9c7.8,5.7,11.3,15.5,11.2,25.4c0,18.9-9.7,33.9-37.7,33.9h-37.9V27h37.2
	C206.7,27,215.5,41.4,215.5,59z M180.8,46.9h-18.5v24.4H182c10.3,0,12.8-6.4,12.8-12.3C194.8,52.8,192.7,46.9,180.8,46.9z
	 M162.4,119.3h19.3c13.7,0,16.5-6.9,16.6-14c0-9.7-4.4-14.2-16.3-14.2h-19.7V119.3z"/>
<path d="M306.1,52.4h19.1v86.8h-19.1V52.4z"/>
<path class="st1" d="M0,135.3c0.2,7.4,5.5,13.8,12.6,15c1,0.2,1.9,0.3,2.9,0.2c4-0.2,7.7-1.9,10.3-5c2.7-3,4.1-7.1,3.9-11.3
	c0-11.3,6.2-19,14.6-27.8c8.8-6.9,21.4-15.2,39.1-25.7c22-12.4,36.4-27,39.5-38.9l0.1-0.3c0.4-1.5,0.6-3,0.5-4.6
	c-0.2-7.4-5.5-13.8-12.6-15c-1-0.2-1.9-0.3-2.9-0.2c-4,0.2-7.7,1.9-10.3,5c-2.7,3-4.1,7.1-3.9,11.3c0,11.9-6.8,19.9-16,29.1
	C58.1,83.3,40,91.4,40,91.4c-22,12.4-36.4,27-39.5,38.9l-0.1,0.3C0.1,132.3-0.1,133.8,0,135.3z"/>
<path class="st2" d="M88.8,87.5c0,0,16,4.5,11,28.3c-0.2,1.3-0.4,2.5-0.2,3.9c0.6,7,6.4,12.2,13.1,11.6c6.7-0.6,11.5-6.8,11-13.8
	C122.5,101,93,80.8,89,81.3c0,0-2.3,0.1-2.3,3.2C86.7,87,88.8,87.5,88.8,87.5z"/>
<path class="st3" d="M86.2,94.3c0,0,10.5,3,7.2,18.5c0,0-3.4,14.6-25.6,18.5c-25.1,4.4-24.7-5.3-24.7-5.3c-0.2-4.8-1.9-10.7,23-26.6
	C66,99.3,78.6,91.1,86.2,94.3z"/>
<path class="st4" d="M23.3,23.4c1.4,21.2,30.1,46.5,47.3,56.3c4.6,2.7,10.4,2.1,12.1,1.4c7.9-3.8-0.6-7-0.6-7s-27-7.6-18.6-47.7
	c0.5-2.1,0.6-4.3,0.5-6.6C63.1,7.9,53.2-0.9,42,0.1C30.7,1.1,22.4,11.5,23.3,23.4z"/>
</svg>
