<?xml version="1.0" encoding="utf-8"?>
<!-- Generator: Adobe Illustrator 27.5.0, SVG Export Plug-In . SVG Version: 6.00 Build 0)  -->
<svg version="1.1" id="Capa_1" xmlns="http://www.w3.org/2000/svg" xmlns:xlink="http://www.w3.org/1999/xlink" x="0px" y="0px"
	 viewBox="0 0 232 55.5" style="enable-background:new 0 0 232 55.5;" xml:space="preserve">
<style type="text/css">
	.st0{fill:#ED1C24;}
	.st1{fill-rule:evenodd;clip-rule:evenodd;fill:url(#SVGID_1_);}
	.st2{fill-rule:evenodd;clip-rule:evenodd;fill:url(#SVGID_00000102531914785317665980000010235161345941035151_);}
	.st3{fill-rule:evenodd;clip-rule:evenodd;fill:url(#SVGID_00000165214964603437611490000011186757259636892843_);}
	.st4{fill-rule:evenodd;clip-rule:evenodd;fill:url(#SVGID_00000014603711479357889050000004927945779351249825_);}
	.st5{fill-rule:evenodd;clip-rule:evenodd;fill:url(#SVGID_00000138563964499714413760000004170842217627744669_);}
	.st6{fill-rule:evenodd;clip-rule:evenodd;fill:#DF1A22;}
	.st7{fill-rule:evenodd;clip-rule:evenodd;fill:#B11116;}
	.st8{fill-rule:evenodd;clip-rule:evenodd;fill:#D31920;}
</style>
<path d="M82.7,27.4h-14v27.2h14c11.4,0,18.9-1.9,18.9-13.6C101.6,29.1,94.1,27.4,82.7,27.4z M82.2,49.3h-2.3c-0.9,0-1.6-0.6-1.6-1.4
	l0-15.3h3.8c5,0,9.8,1.6,9.8,8.3C91.9,47.5,87.2,49.3,82.2,49.3z M214.7,26.7c-11,0-17.3,4.2-17.3,14.2c0,10.1,6.2,14.2,17.3,14.2
	c11,0,17.3-4.1,17.3-14.2C232,30.9,225.8,26.7,214.7,26.7z M214.7,49.9c-6.3,0-7.6-3.6-7.6-8.8c0-5.1,1.3-9.1,7.6-9.1
	c6.3,0,7.6,3.9,7.6,9.1C222.3,46.3,221,49.9,214.7,49.9z M196,34.9l0,1.1h-9.6v-1.1c0-1.6-2.8-2.5-5.7-2.5c-4.5,0-6,3.6-6.1,9.2
	c0,4.5,1.5,8.6,6.1,8.6c2.9,0,5.7-1,5.7-2.8l0-1h9.6v1.1c-0.2,5.8-8.2,8-15.3,8c-10,0-15.9-2.6-15.9-14.2c0-10.2,5.8-14.1,15.9-14.1
	C187.9,27.1,196,29.2,196,34.9z M156.1,40.9c4.4-0.7,7.7-2,7.7-6.5c0-7-7.8-7-13.8-7h-16.5v27.2h9.7V43.8l3.9,0c5,0,5.2,1.8,5.7,5.1
	c0.4,1.9,1,5.7,1,5.7h10.8c0,0-1.6-7-1.6-7C162.4,43.7,161.2,41.3,156.1,40.9z M147.3,38.9h-4v-5c0-0.7,0.6-1.2,1.3-1.3h2.7
	c3.2,0,6.7-0.1,6.7,3.1C154,38.6,150.4,38.9,147.3,38.9z M103.9,27.5l26.9,0v5.3l-17.2,0v5.6l15.9,0v5.3l-15.9,0v4.5
	c0,0.7,0.6,1.2,1.3,1.3l16,0v5.3l-26.9,0V27.5z"/>
<path class="st0" d="M35.7,0.9l0.1,0.3l0.1,0.4l0,0.3l0,0.2l-0.1,0.3L18,33.2l-0.2,0.3l-0.2,0.2l-0.2,0.1l0,0l-0.1,0.1L17,34l-0.2,0
	l-0.1,0h-0.2h-12l-0.2,0l-0.2,0L4,34l-0.2-0.1l0,0l-0.2-0.1l-0.1-0.1l-0.1-0.1l-0.1-0.1l-0.1-0.1l-0.1-0.1l-2.9-5l-0.2-0.3l-0.1-0.2
	l0-0.3l0-0.2l0-0.1l0-0.1l0.1-0.3l0.2-0.4L15,0.9l0-0.1l0.1-0.1l0.1-0.1l0.1-0.1l0.1-0.1l0.1-0.1l0.1-0.1l0.1,0v0l0.3-0.1L16.2,0
	l0.2,0h17.9l0.3,0l0.2,0.1l0.3,0.2l0.3,0.2l0.1,0.2L35.7,0.9z M52.1,44.3l0.2,0l0.3-0.1l0.3-0.2l0.2-0.1l0.2-0.3l9-15.5l0.1-0.2
	l0.1-0.3l0-0.3l0,0l0-0.1l0-0.2l0-0.1l0-0.1l0-0.1l0-0.1l0-0.1l0-0.1L47.5,0.9l-0.3-0.4L47,0.4l-0.1-0.1l-0.1-0.1l-0.1-0.1l-0.3-0.1
	l-0.3,0l-0.4,0l-5.7,0L40,0l-0.1,0l-0.1,0l-0.1,0l-0.1,0.1l-0.2,0.1l0,0L39,0.4l-0.1,0.1l-0.1,0.1l-0.1,0.1l-6,10.4l-0.1,0.1l0,0.1
	l0,0.2l0,0.3l0,0.1v0l0,0.3l0.1,0.3l0.1,0.3l17.8,30.8l0.2,0.3l0.2,0.2l0.3,0.1l0.3,0.1l0.3,0L52.1,44.3z M43.6,35.9l-0.3-0.1
	l-0.3,0l-35.6,0l-0.3,0.1L6.8,36l-0.3,0.2l-0.3,0.2l-0.2,0.2l-0.1,0.2L6,37.1l-0.1,0.3l0,0.4L6,38l0.1,0.3l9,15.5l0.1,0.1l0.2,0.2
	l0.2,0.2l0,0l0.1,0l0.1,0.1l0.1,0l0.1,0l0.1,0l0.1,0l0.1,0h0.1l29.4,0l0.4,0l0.3-0.1l0.1,0l0.1,0l0.1-0.1l0.2-0.2l0.2-0.2l0.2-0.3
	l2.9-5l0.1-0.1l0.1-0.1l0-0.1l0-0.1l0-0.2l0-0.2l0,0l0-0.2l0-0.2l-0.1-0.2L50.5,47l-6-10.4l-0.1-0.1l-0.1-0.1l-0.1-0.1L44,36.1
	L43.9,36l0,0L43.6,35.9z"/>
<g>
	
		<linearGradient id="SVGID_1_" gradientUnits="userSpaceOnUse" x1="57.1641" y1="30.7711" x2="57.1641" y2="12.68" gradientTransform="matrix(1 0 0 -1 1.192093e-06 58)">
		<stop  offset="5.618000e-03" style="stop-color:#BC141A"/>
		<stop  offset="1" style="stop-color:#C8161D"/>
	</linearGradient>
	<path class="st1" d="M58.7,27.3l3.7,0l0,0.3l-0.1,0.3L62.3,28l-9,15.5l-0.2,0.3L52.9,44l-0.3,0.2l-0.3,0.1l-0.2,0l-0.2,0v-5.5
		l0.1,0l0.1-0.1l0.1-0.1l0.1-0.1l6.3-11l0-0.1L58.7,27.3L58.7,27.3z"/>
	
		<linearGradient id="SVGID_00000150067709454456793380000015634160605551440013_" gradientUnits="userSpaceOnUse" x1="38.9712" y1="54.8657" x2="38.9712" y2="24.5342" gradientTransform="matrix(1 0 0 -1 1.192093e-06 58)">
		<stop  offset="5.618000e-03" style="stop-color:#DF1A22"/>
		<stop  offset="1" style="stop-color:#C8161D"/>
	</linearGradient>
	<path style="fill-rule:evenodd;clip-rule:evenodd;fill:url(#SVGID_00000150067709454456793380000015634160605551440013_);" d="
		M30.9,3.6l4.8-2.8l0.1,0.3l0.1,0.4l0,0.3l0,0.2l-0.1,0.3L18,33.2l-0.2,0.3l-0.2,0.2l-0.2,0.1l-1.9-3.2l0.1,0l0,0l0,0L30.8,4.1
		L30.9,4l0-0.1l0-0.1L30.9,3.6z M45,3.5L45,3.5l0.2,0.1l0.1,0.1L58.6,27l0,0.1l0,0.1l0,0.1h3.7l0-0.1l0-0.2l0-0.1l0-0.1l0-0.1l0-0.1
		l0-0.1l0-0.1L47.5,0.9l-0.3-0.4L47,0.4l-0.1-0.1l-0.1-0.1L45,3.5z"/>
	
		<linearGradient id="SVGID_00000149348365829005075690000006755016934628299688_" gradientUnits="userSpaceOnUse" x1="46.3081" y1="20.3874" x2="46.3081" y2="10.4507" gradientTransform="matrix(1 0 0 -1 1.192093e-06 58)">
		<stop  offset="0" style="stop-color:#D31920"/>
		<stop  offset="1" style="stop-color:#DF1A22"/>
	</linearGradient>
	<path style="fill-rule:evenodd;clip-rule:evenodd;fill:url(#SVGID_00000149348365829005075690000006755016934628299688_);" d="
		M43.8,36L42,39.2l0.1,0.1l0.1,0.1l0.1,0.2l4.6,7.9l0,0.1l0,0.1l0,0.1h3.8l0,0l0-0.2l0-0.2l-0.1-0.2L50.5,47l-6-10.4l-0.1-0.2
		l-0.1-0.1l-0.1-0.1L44,36.1L43.8,36L43.8,36z"/>
	
		<linearGradient id="SVGID_00000027601519896893448490000014242175160273247414_" gradientUnits="userSpaceOnUse" x1="47.8237" y1="10.2922" x2="47.8237" y2="3.6655" gradientTransform="matrix(1 0 0 -1 1.192093e-06 58)">
		<stop  offset="0" style="stop-color:#BC141A"/>
		<stop  offset="1" style="stop-color:#C8161D"/>
	</linearGradient>
	<path style="fill-rule:evenodd;clip-rule:evenodd;fill:url(#SVGID_00000027601519896893448490000014242175160273247414_);" d="
		M46.9,47.7L46.9,47.7L46.9,47.7l0,0.1l0,0.1l-1.7,3l0,0l0,0l0,0l0,0l1.9,3.3l0.1-0.1l0.2-0.2l0.2-0.2l0.2-0.3l2.9-5l0.1-0.1
		l0.1-0.1l0-0.1l0-0.1l0-0.2l0-0.2H46.9z"/>
	
		<linearGradient id="SVGID_00000147210503380526592950000007489057675355916430_" gradientUnits="userSpaceOnUse" x1="6.166" y1="38.3071" x2="46.8447" y2="38.3071" gradientTransform="matrix(1 0 0 -1 1.192093e-06 58)">
		<stop  offset="5.618000e-03" style="stop-color:#F26A4D"/>
		<stop  offset="1" style="stop-color:#F58667"/>
	</linearGradient>
	<path style="fill-rule:evenodd;clip-rule:evenodd;fill:url(#SVGID_00000147210503380526592950000007489057675355916430_);" d="
		M39.2,0.2l0.2-0.1l0.1-0.1l0.1,0l0.1,0L40,0l0.1,0l5.7,0l0.4,0l0.3,0l0.3,0.1l0.1,0.1L45,3.5l0,0l-0.1,0l-0.1,0l-0.1,0l-3.5,0
		l-0.1,0l-0.1,0l0,0l0,0L39.2,0.2z M11,39.3L11,39.3l0.2-0.1l0.1,0l30.4,0l0,0l0.1,0l0.1,0l1.9-3.2l-0.2-0.1l-0.3-0.1l-0.3,0H7.4
		l-0.3,0.1L6.8,36l-0.3,0.2l-0.3,0.2l-0.2,0.2L11,39.3L11,39.3z M17.5,3.4L17.5,3.4l0.2,0h12.7h0.2l0.1,0l0.1,0.1l0.1,0.1l4.8-2.8
		l-0.1-0.2l-0.1-0.2l-0.3-0.2l-0.3-0.2L34.6,0l-0.3,0H16.3l-0.2,0l-0.3,0.1l-0.3,0.1L17.5,3.4L17.5,3.4z"/>
	<path class="st6" d="M32.5,11.9l0-0.1l0-0.3l0-0.2l0-0.1l0.1-0.1l6-10.4l0.1-0.1l0.1-0.1L39,0.4l0.1-0.1l0,0l1.9,3.2L41,3.5L41,3.6
		l-0.1,0.1l-4.6,7.9l-0.1,0.2l0,0.1l0,0.1L32.5,11.9L32.5,11.9z M3.8,27.3L3.8,27.3l0-0.2L3.8,27L17.3,3.6l0-0.1l0.1-0.1l0,0
		l-1.9-3.2l-0.1,0l-0.1,0.1l-0.1,0.1l-0.1,0.1l-0.1,0.1l-0.1,0.1L15,0.8l0,0.1L0.3,26.3l-0.2,0.4L0,27.1l0,0.1l0,0.1H3.8z"/>
	<path class="st7" d="M46.9,54.3L46.9,54.3l-0.2,0.1l-0.3,0.1l-0.4,0l-29.4,0l-0.1,0l-0.1,0l-0.1,0l-0.1,0l-0.1,0l-0.1,0l-0.1-0.1
		l-0.1,0l1.9-3.2l0,0l0.1,0l0.1,0l27,0l0.1,0l0.1,0l0.1,0L46.9,54.3z M17.4,33.8l-1.9-3.2l-0.1,0l-0.1,0h-0.2l-9.1,0l-0.1,0l-0.1,0
		l-0.1,0l-1.9,3.2l0,0L4,34L4.2,34l0.2,0l0.2,0h12h0.2l0.1,0l0.2,0l0.2-0.1L17.4,33.8L17.4,33.8z"/>
	<path class="st8" d="M17.5,51.1l-1.9,3.2l-0.2-0.2l-0.2-0.2l-0.1-0.1l-9-15.5L6,38l0-0.2l0-0.4L6,37.1l0.1-0.2l0.1-0.2l4.8,2.8
		l0,0.1l0,0.1l0,0.1l0.1,0.1l6.4,11l0.1,0.1L17.5,51.1L17.5,51.1z M51.8,38.8L51.8,38.8l-0.2-0.1l-0.1-0.1L36.3,12.2l0,0l0-0.1
		l0-0.1l-3.7,0l0,0.3l0.1,0.3l0.1,0.3l17.8,30.8l0.2,0.3l0.2,0.2l0.3,0.1l0.3,0.1l0.3,0v-5.5L51.8,38.8z M5.7,30.6L5.7,30.6
		L5.7,30.6L5.7,30.6l-0.1-0.1l-1.7-3l0-0.1l0-0.1l0-0.1v0H0l0,0.2l0,0.3l0.1,0.2l0.2,0.3l2.9,5l0.1,0.1l0.1,0.1l0.1,0.1l0.1,0.1
		l0.1,0.1l0.2,0.1L5.7,30.6z"/>
</g>
</svg>
