<?xml version="1.0" encoding="utf-8"?>
<!-- Generator: Adobe Illustrator 27.5.0, SVG Export Plug-In . SVG Version: 6.00 Build 0)  -->
<svg version="1.1" id="Capa_1" xmlns="http://www.w3.org/2000/svg" xmlns:xlink="http://www.w3.org/1999/xlink" x="0px" y="0px"
	 viewBox="0 0 185.6 39.1" style="enable-background:new 0 0 185.6 39.1;" xml:space="preserve">
<style type="text/css">
	.st0{fill:#00A298;}
	.st1{fill:#00A19B;}
	.st2{fill:#5B7E96;}
	.st3{fill:#FF595A;}
</style>
<g>
	<g>
		<path class="st0" d="M41.4,6.4h14.8v4.8h-9v3.4h7.7v4.8h-7.7v3.9h9.3V28H41.4V6.4z"/>
		<path class="st0" d="M60.1,25.9l2.4-3.5c2.1,1.2,4.4,1.9,6.5,1.9c1.5,0,2.1-0.4,2.1-1c0-0.8-0.9-0.9-3.7-1.5
			c-4.6-1-6.3-2.7-6.3-5.3c0-3.3,3.1-5.4,7.9-5.4c3.1,0,5.6,1.2,7.4,2.3L74,16.7c-1.7-1-3.7-1.5-5.4-1.5c-1.1,0-1.7,0.3-1.7,0.9
			c0,0.7,0.9,0.8,3.5,1.4c5,1.1,6.5,2.6,6.5,5.4c0,3.1-3,5.5-8.5,5.5C65.4,28.5,62.2,27.3,60.1,25.9L60.1,25.9z"/>
		<path class="st0" d="M80,19.7c0-5.5,4.3-8.7,8.7-8.7c5.3,0,7.9,3.6,7.9,8.1c0,1-0.2,2-0.2,2.4H84.3v-3.7h8.1l-0.8,1
			c0-2.2-0.9-3.4-2.7-3.4c-2.2,0-3.4,1.4-3.4,4.4s1.5,4.4,4.6,4.4c1.3,0,2.5-0.3,4-1l1.9,3.4c-2,1.3-4.6,1.9-6.7,1.9
			C84,28.5,80,25.3,80,19.7L80,19.7z"/>
		<path class="st0" d="M100.4,11.4h4.7l0.4,2h0.1c1.3-1.3,3.1-2.4,5.6-2.4c3.7,0,5.3,2.7,5.3,6.8v10.3h-5.7v-9.5
			c0-1.9-0.5-2.7-1.9-2.7c-1.1,0-1.8,0.5-2.7,1.3v10.9h-5.7L100.4,11.4L100.4,11.4z"/>
		<path class="st0" d="M120.4,19.7c0-5.5,4.6-8.7,9.8-8.7c2.6,0,4.9,0.9,6.3,2.2l-2.6,3.5c-1.2-0.8-2.3-1.1-3.4-1.1
			c-2.5,0-4.2,1.6-4.2,4.1s1.7,4.1,4,4.1c1.6,0,3-0.7,4.1-1.4l2.3,3.6c-2.1,1.7-4.7,2.4-6.9,2.4C124.5,28.5,120.4,25.3,120.4,19.7
			L120.4,19.7z"/>
		<path class="st0" d="M140.2,15.9L140.2,15.9v-4.5h5.7v16.7h-5.7L140.2,15.9L140.2,15.9z M139.2,5.8c0-2,1.5-3.4,3.7-3.4
			s3.7,1.4,3.7,3.4s-1.5,3.3-3.7,3.3S139.2,7.8,139.2,5.8z"/>
		<path class="st0" d="M149.9,23.3c0-3.7,2.9-5.7,10.5-6.1c-0.2-1.2-1.3-1.7-3.2-1.7c-1.4,0-2.8,0.5-4.8,1.4l-2-3.7
			c2.5-1.4,5.1-2.2,7.9-2.2c4.7,0,7.8,2.3,7.8,7.8v9.3h-4.7l-0.4-1.7h-0.1c-1.6,1.2-3.6,2.1-5.7,2.1
			C151.8,28.5,149.9,26.1,149.9,23.3L149.9,23.3z M160.4,22.8v-2.1c-4.1,0.1-5.1,1.1-5.1,2.2c0,0.8,0.6,1.2,1.8,1.2
			C158.5,24.1,159.5,23.5,160.4,22.8L160.4,22.8z"/>
		<polygon class="st0" points="170.5,11.1 170.5,11.1 170.5,4.8 176.2,4.8 176.2,28.1 170.5,28.1 		"/>
	</g>
	<g>
		<path class="st1" d="M41.4,6.4h14.8v4.8h-9v3.4h7.7v4.8h-7.7v3.9h9.3V28H41.4V6.4z"/>
		<path class="st1" d="M60.1,25.9l2.4-3.5c2.1,1.2,4.4,1.9,6.5,1.9c1.5,0,2.1-0.4,2.1-1c0-0.8-0.9-0.9-3.7-1.5
			c-4.6-1-6.3-2.7-6.3-5.3c0-3.3,3.1-5.4,7.9-5.4c3.1,0,5.6,1.2,7.4,2.3L74,16.7c-1.7-1-3.7-1.5-5.4-1.5c-1.1,0-1.7,0.3-1.7,0.9
			c0,0.7,0.9,0.8,3.5,1.4c5,1.1,6.5,2.6,6.5,5.4c0,3.1-3,5.5-8.5,5.5C65.4,28.5,62.2,27.3,60.1,25.9L60.1,25.9z"/>
		<path class="st1" d="M80,19.7c0-5.5,4.3-8.7,8.7-8.7c5.3,0,7.9,3.6,7.9,8.1c0,1-0.2,2-0.2,2.4H84.3v-3.7h8.1l-0.8,1
			c0-2.2-0.9-3.4-2.7-3.4c-2.2,0-3.4,1.4-3.4,4.4s1.5,4.4,4.6,4.4c1.3,0,2.5-0.3,4-1l1.9,3.4c-2,1.3-4.6,1.9-6.7,1.9
			C84,28.5,80,25.3,80,19.7L80,19.7z"/>
		<path class="st1" d="M100.4,11.4h4.7l0.4,2h0.1c1.3-1.3,3.1-2.4,5.6-2.4c3.7,0,5.3,2.7,5.3,6.8v10.3h-5.7v-9.5
			c0-1.9-0.5-2.7-1.9-2.7c-1.1,0-1.8,0.5-2.7,1.3v10.9h-5.7L100.4,11.4L100.4,11.4z"/>
		<path class="st1" d="M120.4,19.7c0-5.5,4.6-8.7,9.8-8.7c2.6,0,4.9,0.9,6.3,2.2l-2.6,3.5c-1.2-0.8-2.3-1.1-3.4-1.1
			c-2.5,0-4.2,1.6-4.2,4.1s1.7,4.1,4,4.1c1.6,0,3-0.7,4.1-1.4l2.3,3.6c-2.1,1.7-4.7,2.4-6.9,2.4C124.5,28.5,120.4,25.3,120.4,19.7
			L120.4,19.7z"/>
		<path class="st1" d="M140.2,15.9L140.2,15.9v-4.5h5.7v16.7h-5.7L140.2,15.9L140.2,15.9z M139.2,5.8c0-2,1.5-3.4,3.7-3.4
			s3.7,1.4,3.7,3.4s-1.5,3.3-3.7,3.3S139.2,7.8,139.2,5.8z"/>
		<path class="st1" d="M149.9,23.3c0-3.7,2.9-5.7,10.5-6.1c-0.2-1.2-1.3-1.7-3.2-1.7c-1.4,0-2.8,0.5-4.8,1.4l-2-3.7
			c2.5-1.4,5.1-2.2,7.9-2.2c4.7,0,7.8,2.3,7.8,7.8v9.3h-4.7l-0.4-1.7h-0.1c-1.6,1.2-3.6,2.1-5.7,2.1
			C151.8,28.5,149.9,26.1,149.9,23.3L149.9,23.3z M160.4,22.8v-2.1c-4.1,0.1-5.1,1.1-5.1,2.2c0,0.8,0.6,1.2,1.8,1.2
			C158.5,24.1,159.5,23.5,160.4,22.8L160.4,22.8z"/>
		<polygon class="st1" points="170.5,11.1 170.5,11.1 170.5,4.8 176.2,4.8 176.2,28.1 170.5,28.1 		"/>
	</g>
	<g>
		<path class="st2" d="M104.3,35.1h0.9v2c-0.3,0.2-0.6,0.4-0.9,0.5s-0.7,0.2-1.1,0.2c-0.5,0-1-0.1-1.4-0.3c-0.4-0.2-0.8-0.5-1-0.9
			s-0.4-0.8-0.4-1.3s0.1-1,0.4-1.3s0.6-0.7,1-0.9s0.9-0.3,1.4-0.3c0.4,0,0.8,0.1,1.2,0.2s0.6,0.3,0.9,0.6l-0.6,0.6
			c-0.4-0.4-0.9-0.6-1.4-0.6c-0.4,0-0.7,0.1-1,0.2s-0.5,0.4-0.7,0.6s-0.2,0.6-0.2,0.9s0.1,0.7,0.2,0.9c0.2,0.3,0.4,0.5,0.7,0.6
			c0.3,0.2,0.6,0.2,0.9,0.2c0.4,0,0.8-0.1,1.1-0.3L104.3,35.1L104.3,35.1z"/>
		<path class="st2" d="M110.1,33.8v0.9c-0.1,0-0.2,0-0.2,0c-0.3,0-0.6,0.1-0.8,0.3c-0.2,0.2-0.3,0.5-0.3,0.9v1.9h-0.9v-3.9h0.9v0.6
			C108.9,34,109.4,33.8,110.1,33.8L110.1,33.8z"/>
		<path class="st2" d="M116.1,33.8v3.9h-0.9v-0.5c-0.2,0.2-0.3,0.3-0.6,0.4s-0.4,0.1-0.7,0.1c-0.5,0-0.9-0.1-1.2-0.4
			s-0.4-0.7-0.4-1.3v-2.2h0.9v2.1c0,0.3,0.1,0.6,0.2,0.8c0.2,0.2,0.4,0.3,0.7,0.3c0.3,0,0.6-0.1,0.8-0.3s0.3-0.5,0.3-0.9v-2
			L116.1,33.8L116.1,33.8z"/>
		<path class="st2" d="M121.9,34c0.3,0.2,0.5,0.4,0.7,0.7s0.3,0.7,0.3,1s-0.1,0.7-0.3,1c-0.2,0.3-0.4,0.5-0.7,0.7
			c-0.3,0.2-0.6,0.2-1,0.2c-0.5,0-0.9-0.2-1.2-0.5v1.9h-0.9v-5.3h0.9v0.5c0.2-0.2,0.3-0.3,0.6-0.4c0.2-0.1,0.5-0.1,0.7-0.1
			C121.3,33.8,121.6,33.9,121.9,34z M121.6,36.6c0.2-0.2,0.3-0.5,0.3-0.9s-0.1-0.7-0.3-0.9c-0.2-0.2-0.5-0.3-0.8-0.3
			c-0.2,0-0.4,0-0.6,0.2c-0.2,0.1-0.3,0.2-0.4,0.4c-0.1,0.2-0.2,0.4-0.2,0.6s0.1,0.5,0.2,0.6s0.2,0.3,0.4,0.4
			c0.2,0.1,0.4,0.2,0.6,0.2C121.1,37,121.4,36.9,121.6,36.6z"/>
		<path class="st2" d="M125.9,37.5c-0.3-0.2-0.6-0.4-0.7-0.7s-0.3-0.7-0.3-1s0.1-0.7,0.3-1s0.4-0.5,0.7-0.7s0.7-0.3,1.1-0.3
			c0.4,0,0.8,0.1,1.1,0.3c0.3,0.2,0.6,0.4,0.7,0.7s0.3,0.6,0.3,1s-0.1,0.7-0.3,1c-0.2,0.3-0.4,0.5-0.7,0.7c-0.3,0.2-0.7,0.3-1.1,0.3
			S126.2,37.7,125.9,37.5z M127.8,36.7c0.2-0.2,0.3-0.5,0.3-0.9s-0.1-0.7-0.3-0.9c-0.2-0.2-0.5-0.3-0.8-0.3s-0.6,0.1-0.8,0.3
			c-0.2,0.2-0.3,0.5-0.3,0.9s0.1,0.7,0.3,0.9c0.2,0.2,0.5,0.3,0.8,0.3C127.3,37,127.6,36.9,127.8,36.7z"/>
		<path class="st2" d="M138.2,36.5h-2.6l-0.5,1.2h-1l2.3-5.1h0.9l2.3,5.1h-1L138.2,36.5z M137.9,35.8l-1-2.2l-1,2.2H137.9
			L137.9,35.8z"/>
		<path class="st2" d="M141.8,32.3h0.9v5.4h-0.9V32.3z"/>
		<path class="st2" d="M149,36.1h-3.1c0.1,0.3,0.2,0.5,0.4,0.7c0.2,0.2,0.5,0.2,0.8,0.2c0.4,0,0.8-0.1,1.1-0.4l0.5,0.6
			c-0.2,0.2-0.4,0.4-0.7,0.5c-0.3,0.1-0.6,0.2-0.9,0.2c-0.4,0-0.8-0.1-1.1-0.3c-0.3-0.2-0.6-0.4-0.8-0.7c-0.2-0.3-0.3-0.7-0.3-1
			s0.1-0.7,0.3-1s0.4-0.5,0.7-0.7s0.6-0.3,1-0.3s0.7,0.1,1,0.2s0.5,0.4,0.7,0.7c0.2,0.3,0.2,0.7,0.2,1C149,35.8,149,35.9,149,36.1
			L149,36.1z M146.3,34.8c-0.2,0.2-0.3,0.4-0.4,0.7h2.2c0-0.3-0.2-0.5-0.4-0.7c-0.2-0.2-0.4-0.3-0.7-0.3S146.5,34.6,146.3,34.8z"/>
		<path class="st2" d="M157.4,34.2c0.3,0.3,0.4,0.7,0.4,1.3v2.2h-0.9v-2.1c0-0.3-0.1-0.6-0.2-0.8s-0.4-0.3-0.6-0.3
			c-0.3,0-0.6,0.1-0.7,0.3s-0.3,0.5-0.3,0.9v2h-0.9v-2.1c0-0.3-0.1-0.6-0.2-0.8s-0.4-0.3-0.6-0.3c-0.3,0-0.6,0.1-0.7,0.3
			s-0.3,0.5-0.3,0.9v2h-0.9v-3.9h0.9v0.5c0.1-0.2,0.3-0.3,0.6-0.4s0.5-0.1,0.7-0.1c0.3,0,0.6,0,0.8,0.2s0.4,0.3,0.5,0.5
			c0.2-0.2,0.4-0.4,0.6-0.5c0.2-0.1,0.5-0.2,0.8-0.2C156.7,33.8,157.1,33.9,157.4,34.2L157.4,34.2z"/>
		<path class="st2" d="M163.3,34.2c0.3,0.3,0.5,0.7,0.5,1.2v2.3h-0.9v-0.5c-0.1,0.2-0.3,0.3-0.5,0.4c-0.2,0.1-0.5,0.1-0.8,0.1
			s-0.6,0-0.8-0.2c-0.2-0.1-0.4-0.2-0.5-0.4c-0.1-0.2-0.2-0.4-0.2-0.6c0-0.3,0.1-0.6,0.4-0.8s0.7-0.3,1.2-0.3h1v-0.1
			c0-0.3-0.1-0.5-0.2-0.6s-0.4-0.2-0.7-0.2c-0.2,0-0.4,0-0.6,0.1c-0.2,0.1-0.4,0.2-0.5,0.3l-0.4-0.7c0.2-0.2,0.4-0.3,0.7-0.4
			s0.6-0.1,0.9-0.1C162.5,33.8,162.9,33.9,163.3,34.2L163.3,34.2z M162.4,37c0.2-0.1,0.3-0.2,0.4-0.5v-0.5h-0.9
			c-0.5,0-0.8,0.2-0.8,0.5c0,0.2,0.1,0.3,0.2,0.4c0.1,0.1,0.3,0.2,0.6,0.2S162.3,37.1,162.4,37L162.4,37z"/>
		<path class="st2" d="M169.7,34.2c0.3,0.3,0.4,0.7,0.4,1.3v2.2h-0.9v-2.1c0-0.3-0.1-0.6-0.2-0.8s-0.4-0.3-0.7-0.3
			c-0.3,0-0.6,0.1-0.8,0.3c-0.2,0.2-0.3,0.5-0.3,0.9v2h-0.9v-3.9h0.9v0.5c0.1-0.2,0.3-0.3,0.6-0.4c0.2-0.1,0.5-0.1,0.8-0.1
			C169,33.8,169.4,33.9,169.7,34.2z"/>
		<path class="st2" d="M175.6,34.2c0.3,0.3,0.5,0.7,0.5,1.2v2.3h-0.9v-0.5c-0.1,0.2-0.3,0.3-0.5,0.4c-0.2,0.1-0.5,0.1-0.8,0.1
			s-0.6,0-0.8-0.2c-0.2-0.1-0.4-0.2-0.5-0.4c-0.1-0.2-0.2-0.4-0.2-0.6c0-0.3,0.1-0.6,0.4-0.8s0.7-0.3,1.2-0.3h1v-0.1
			c0-0.3-0.1-0.5-0.2-0.6s-0.4-0.2-0.7-0.2c-0.2,0-0.4,0-0.6,0.1c-0.2,0.1-0.4,0.2-0.5,0.3l-0.4-0.7c0.2-0.2,0.4-0.3,0.7-0.4
			s0.6-0.1,0.9-0.1C174.8,33.8,175.3,33.9,175.6,34.2L175.6,34.2z M174.8,37c0.2-0.1,0.3-0.2,0.4-0.5v-0.5h-0.9
			c-0.5,0-0.8,0.2-0.8,0.5c0,0.2,0.1,0.3,0.2,0.4c0.1,0.1,0.3,0.2,0.6,0.2S174.6,37.1,174.8,37L174.8,37z"/>
	</g>
	<g>
		<path class="st3" d="M22.1,12.2l0.8-0.7c2.7-2.5,2.8-6.7,0.3-9.3s-6.7-2.8-9.3-0.3s-2.8,6.7-0.3,9.3l4.5,4.8l2.3-2.2l-4.5-4.8
			c-1.3-1.4-1.2-3.5,0.2-4.8s3.5-1.2,4.8,0.2s1.2,3.5-0.2,4.8l-0.8,0.7L22.1,12.2L22.1,12.2z"/>
		<path class="st3" d="M23.6,21.7l0.7,0.8c2.5,2.7,6.7,2.8,9.3,0.3s2.8-6.7,0.3-9.3s-6.7-2.8-9.3-0.3l-4.8,4.5l2.2,2.3l4.8-4.5
			c1.4-1.3,3.5-1.2,4.8,0.2c1.3,1.4,1.2,3.5-0.2,4.8c-1.4,1.3-3.5,1.2-4.8-0.2l-0.7-0.8L23.6,21.7L23.6,21.7z"/>
		<path class="st3" d="M14.2,23.9l-0.8,0.7c-2.7,2.5-2.8,6.7-0.3,9.3s6.7,2.8,9.3,0.3s2.8-6.7,0.3-9.3l-4.5-4.8l-2.3,2.2l4.5,4.8
			c1.3,1.4,1.2,3.5-0.2,4.8c-1.4,1.3-3.5,1.2-4.8-0.2c-1.3-1.4-1.2-3.5,0.2-4.8l0.8-0.7L14.2,23.9L14.2,23.9z"/>
		<path class="st3" d="M13.8,15.6l-5,4.2c-1.1,0.9-2.6,1-3.8,0.4l7.4-6.3l-0.1-0.1l0,0L11.7,13c-0.2-0.2-0.4-0.4-0.6-0.6l0,0l0,0
			c-2.4-2.2-6.2-2.4-8.7-0.2c-2.8,2.4-3.1,6.5-0.8,9.3s6.5,3.1,9.3,0.8l5-4.2L13.8,15.6L13.8,15.6z M4.4,14.7c1.2-1,3-1,4.2-0.2
			l-5.1,4.3C2.9,17.4,3.2,15.7,4.4,14.7z"/>
	</g>
</g>
<path class="st1" d="M185.6,25.1c0,1.6-1.2,2.8-2.8,2.8s-2.8-1.2-2.8-2.8s1.2-2.8,2.8-2.8S185.6,23.5,185.6,25.1z M185,25.1
	c0-1.3-0.9-2.2-2.2-2.2s-2.2,0.9-2.2,2.2s0.9,2.2,2.2,2.2S185,26.4,185,25.1z M184.2,26.5h-0.9l-0.5-1h-0.3v1h-0.8v-3h1.3
	c0.7,0,1.2,0.3,1.2,1c0,0.5-0.2,0.7-0.5,0.9L184.2,26.5L184.2,26.5z M183.3,24.6c0-0.2-0.1-0.3-0.4-0.3h-0.5v0.6h0.5
	C183.2,24.9,183.3,24.8,183.3,24.6L183.3,24.6z"/>
</svg>
