<?xml version="1.0" encoding="utf-8"?>
<!-- Generator: Adobe Illustrator 27.5.0, SVG Export Plug-In . SVG Version: 6.00 Build 0)  -->
<svg version="1.1" id="Capa_1" xmlns="http://www.w3.org/2000/svg" xmlns:xlink="http://www.w3.org/1999/xlink" x="0px" y="0px"
	 viewBox="0 0 1511.9 469.9" style="enable-background:new 0 0 1511.9 469.9;" xml:space="preserve">
<style type="text/css">
	.st0{fill:url(#Trazado_1656_00000139997495593057009640000015980589085012316088_);}
	.st1{fill:url(#Trazado_1644_00000098929012823724112880000000790888114722805426_);}
	.st2{fill:url(#Trazado_1645_00000171703421256082696120000017476033980863520165_);}
	.st3{fill:url(#Trazado_25_00000045585710653908176400000013606135653801425319_);}
	.st4{fill:url(#Trazado_1646_00000139272340934282450540000012230868197103362179_);}
	.st5{fill:url(#Trazado_1647_00000021813080096967890210000017187788389411156623_);}
	.st6{fill:url(#Trazado_1648_00000005977115126552968700000002450669246099037111_);}
	.st7{fill:url(#Trazado_1650_00000059286617818376709370000016761361276387132808_);}
</style>
<g>
	
		<linearGradient id="Trazado_1656_00000121268070320940356030000010951700973296699272_" gradientUnits="userSpaceOnUse" x1="-206.8035" y1="774.8142" x2="-206.8035" y2="773.8142" gradientTransform="matrix(78.086 0 0 -341.965 17255.1445 265023.4375)">
		<stop  offset="0" style="stop-color:#6B7378"/>
		<stop  offset="1" style="stop-color:#000000"/>
	</linearGradient>
	<path id="Trazado_1656" style="fill:url(#Trazado_1656_00000121268070320940356030000010951700973296699272_);" d="M1067.6,64.1
		h78.1v342h-78.1V64.1z"/>
	
		<linearGradient id="Trazado_1644_00000113331044019181409030000015246798897391099320_" gradientUnits="userSpaceOnUse" x1="-203.6093" y1="774.8212" x2="-203.6093" y2="773.8212" gradientTransform="matrix(302.924 0 0 -355.423 63038.6094 275446.6562)">
		<stop  offset="0" style="stop-color:#6B7378"/>
		<stop  offset="1" style="stop-color:#000000"/>
	</linearGradient>
	<path id="Trazado_1644" style="fill:url(#Trazado_1644_00000113331044019181409030000015246798897391099320_);" d="M1438.4,64.1
		c0,0,0.2,261.7,0,261.8c-0.3,0.2-87.7-212.3-98.6-229.3c-14.2-22.1-30.5-39.2-63.4-39.2c-30.6,0-67.3,15.1-67.3,88.7v260h73.6
		c0,0-0.1-259.5,0-259.5c0.1-0.1,78.6,198.7,97.5,228.4c14.1,22.3,31.6,37.9,64.5,37.9c30.7,0,67.3-13.9,67.3-87.4V64.1H1438.4z"/>
	
		<linearGradient id="Trazado_1645_00000181808856972355416500000000321866625538769827_" gradientUnits="userSpaceOnUse" x1="-203.5999" y1="774.8142" x2="-203.5999" y2="773.8142" gradientTransform="matrix(305.519 0 0 -341.974 62356.3945 265030.4062)">
		<stop  offset="0" style="stop-color:#6B7378"/>
		<stop  offset="1" style="stop-color:#000000"/>
	</linearGradient>
	<path id="Trazado_1645" style="fill:url(#Trazado_1645_00000181808856972355416500000000321866625538769827_);" d="M253.2,175.7
		l52.4-111.6h-83l-47.2,105c-12.8,27-17.8,32.3-60.7,32.3H75.4V64.1H0v342h75.4V268.7h39.2c42.8,0,47.9,5.3,60.7,32.3l47.2,105h83
		l-52.4-111.6c-16.2-34.7-25-50-49.7-59.4C228.1,225.7,237,210.4,253.2,175.7z"/>
	
		<linearGradient id="Trazado_25_00000171683702266012831550000007212808845978878382_" gradientUnits="userSpaceOnUse" x1="-202.5268" y1="774.8224" x2="-202.5268" y2="773.8224" gradientTransform="matrix(352.738 0 0 -352.738 71941.8516 273309.2812)">
		<stop  offset="0" style="stop-color:#5C85C6"/>
		<stop  offset="1" style="stop-color:#2E4263"/>
	</linearGradient>
	<path id="Trazado_25" style="fill:url(#Trazado_25_00000171683702266012831550000007212808845978878382_);" d="M503,0
		c-97.4,0-176.4,79-176.4,176.4c0,97.4,79,176.4,176.4,176.4c97.4,0,176.4-79,176.4-176.4c0,0,0,0,0,0C679.3,79,600.4,0,503,0z
		 M503,277.3c-55.8,0-101-45.2-101-101c0-55.8,45.2-101,101-101s101,45.2,101,101c0,0,0,0,0,0C603.9,232.1,558.7,277.3,503,277.3
		L503,277.3z"/>
	
		<linearGradient id="Trazado_1646_00000008859271580735830720000003908887817678412986_" gradientUnits="userSpaceOnUse" x1="-203.6734" y1="774.8212" x2="-203.6734" y2="773.8212" gradientTransform="matrix(286.3938 0 0 -355.2375 59203.7656 275303.1562)">
		<stop  offset="0" style="stop-color:#6B7378"/>
		<stop  offset="1" style="stop-color:#000000"/>
	</linearGradient>
	<path id="Trazado_1646" style="fill:url(#Trazado_1646_00000008859271580735830720000003908887817678412986_);" d="M972.4,229.9
		c-28.8-15.9-86.2-33.5-86.2-33.5s-25.8-7.1-50.6-16.8c0,0-22.3-6.5-21.2-23.1c0.9-14.2,8.7-23.8,53-23.8h0c12.7,0,26.6,0.7,41.5,2
		l87,6.3l8-77.2l-62.7-3.8c-32.3-2.7-63.1-2.5-75.1-2.5c-45.3,0-81.2,9.3-104.1,27.6c-22.4,18-32.1,40.2-32.1,70
		c-0.5,26.1,9.1,51.3,26.8,70.4c6.2,6.4,16.7,13.1,31.8,20.3c10.6,5.2,21.5,9.6,32.8,13.2c0,0,32.2,11.4,59.3,20.4
		c24.2,8.1,51.2,18.8,51.1,35.7c0,16.2-12.4,22.5-53,22.5c-12.2,0-26.2-2-41.5-3.3l-93.7-8.3l-8,79.9l72.4,4.2
		c24.2,1.3,62.4,2.8,74.8,2.8c44.4,0,78.5-9.3,101.4-27.6c23-18.4,32.1-41.9,32.1-71.3c0.5-12-1.2-24-4.8-35.5
		C1007.1,266,996.3,243.2,972.4,229.9z"/>
	
		<linearGradient id="Trazado_1647_00000120545939589501680680000013694144793690541958_" gradientUnits="userSpaceOnUse" x1="-203.4578" y1="774.2551" x2="-203.4578" y2="773.2551" gradientTransform="matrix(350.846 0 0 -85.298 71886.1484 66426.9922)">
		<stop  offset="0" style="stop-color:#5C85C6"/>
		<stop  offset="1" style="stop-color:#2E4263"/>
	</linearGradient>
	<path id="Trazado_1647" style="fill:url(#Trazado_1647_00000120545939589501680680000013694144793690541958_);" d="M503.8,384.6
		c-96.5,0-151.5,31-175.4,46.5c19.8,15.8,41.7,28.8,65.1,38.8c35.7-12.3,73.3-18.4,111-18c47.2,0,81.7,8.1,109.7,18
		c23.3-9.9,45.2-23,65.1-38.8C655.3,415.6,600.3,384.6,503.8,384.6z"/>
	
		<linearGradient id="Trazado_1648_00000148628113325915481370000013234973421043683762_" gradientUnits="userSpaceOnUse" x1="-203.4624" y1="772.634" x2="-203.4624" y2="773.634" gradientTransform="matrix(349.164 0 0 -46.513 71544.7031 36368.6094)">
		<stop  offset="0" style="stop-color:#5C85C6"/>
		<stop  offset="1" style="stop-color:#2E4263"/>
	</linearGradient>
	<path id="Trazado_1648" style="fill:url(#Trazado_1648_00000148628113325915481370000013234973421043683762_);" d="M505.1,410.1
		c68,0,125.1,8.1,172.4,19.9c-24.7-15.8-79.4-45.4-173.7-45.4c-96.5,0-151.5,31-175.4,46.5h0C376.5,418.8,435,410.1,505.1,410.1z"/>
	
		<linearGradient id="Trazado_1650_00000028289403371230754230000005491409827747211411_" gradientUnits="userSpaceOnUse" x1="-203.7116" y1="773.7709" x2="-203.7116" y2="774.7709" gradientTransform="matrix(277.344 0 0 -277.344 57001.3164 214954.3438)">
		<stop  offset="0" style="stop-color:#5C85C6"/>
		<stop  offset="1" style="stop-color:#2E4263"/>
	</linearGradient>
	<path id="Trazado_1650" style="fill:url(#Trazado_1650_00000028289403371230754230000005491409827747211411_);" d="M503.1,76.3
		c55.8,0,101,45.2,101,101s-45.2,101-101,101s-101-45.2-101-101C402.1,121.5,447.4,76.3,503.1,76.3c-76.6,0-138.7,62.1-138.7,138.7
		s62.1,138.7,138.7,138.7c76.6,0,138.7-62.1,138.7-138.7c0,0,0,0,0,0C641.8,138.4,579.7,76.3,503.1,76.3L503.1,76.3z"/>
</g>
</svg>
