<?xml version="1.0" encoding="utf-8"?>
<!-- Generator: Adobe Illustrator 27.5.0, SVG Export Plug-In . SVG Version: 6.00 Build 0)  -->
<svg version="1.1" id="Capa_1" xmlns="http://www.w3.org/2000/svg" xmlns:xlink="http://www.w3.org/1999/xlink" x="0px" y="0px"
	 viewBox="0 0 780 125.1" style="enable-background:new 0 0 780 125.1;" xml:space="preserve">
<style type="text/css">
	.st0{fill:#009CDD;}
	.st1{fill:#6D2077;}
	.st2{fill:#D00070;}
</style>
<g>
	<g>
		<path class="st0" d="M9.8,46.6c5.4,0,9.8-4.4,9.8-9.9c0-5.5-4.4-9.9-9.8-9.9c-5.4,0-9.8,4.4-9.8,9.9C0,42.2,4.4,46.6,9.8,46.6z"/>
		<path class="st1" d="M770.2,124.1c5.4,0,9.8-4.4,9.8-9.9s-4.4-9.9-9.8-9.9c-5.4,0-9.8,4.5-9.8,9.9S764.8,124.1,770.2,124.1z"/>
		<path class="st2" d="M305.1,64.2L305.1,64.2c0-11.1-3.9-20.4-10.8-26.7l-0.5-0.4l-0.1-0.1h0c-6.5-5.6-15.4-8.6-25.9-8.7
			c0,0-0.1,0-0.2,0c-0.1,0-0.2,0-0.3,0h-0.1c-0.3,0-0.5,0-0.7,0c-0.1,0-0.3,0-0.5,0l-0.2,0c-0.1,0-0.2,0-0.3,0c0,0,0,0,0,0
			c0,0,0,0-0.1,0c0,0-0.1,0-0.2,0c-10.5,0.1-19.3,3.1-25.8,8.7l0,0l-0.6,0.6c-6.9,6.2-10.7,15.5-10.8,26.5h0v0.1l0,56.8
			c0,0.8,0.3,1.5,0.9,2c0.6,0.5,1.4,0.8,2.2,0.8H241c0.8,0,1.6-0.3,2.2-0.8c0.6-0.5,0.9-1.3,0.9-2l0-54.8c0-8.1,2.1-13.7,5.8-17.5
			c3.6-3.7,9.1-5.7,16.6-5.9c7.5,0.2,13,2.2,16.5,5.9c3.7,3.8,5.8,9.4,5.8,17.5l0,54.8c0,0.8,0.4,1.5,0.9,2c0.6,0.5,1.4,0.8,2.2,0.8
			h10.1c0.8,0,1.6-0.3,2.1-0.8c0.6-0.5,0.9-1.3,0.9-2L305.1,64.2z"/>
		<path class="st2" d="M657.4,64.2L657.4,64.2c0-11.1-3.9-20.4-10.8-26.7l-0.5-0.4L646,37l0,0c-6.5-5.6-15.4-8.6-25.9-8.7
			c0,0-0.1,0-0.2,0c-0.1,0-0.2,0-0.3,0h-0.1c-0.3,0-0.5,0-0.7,0c-0.1,0-0.3,0-0.5,0l-0.2,0c-0.1,0-0.2,0-0.3,0c0,0,0,0,0,0
			c0,0,0,0-0.1,0c0,0-0.1,0-0.2,0c-10.5,0.1-19.3,3.1-25.8,8.7h0l-0.6,0.6c-6.9,6.2-10.7,15.5-10.8,26.5l0,0l0,0.1l-0.1,56.8
			c0,0.8,0.3,1.5,0.9,2c0.6,0.5,1.3,0.8,2.1,0.8h10.1c0.8,0,1.6-0.3,2.2-0.8c0.6-0.5,0.9-1.3,0.9-2l0.1-54.8
			c0-8.1,2.1-13.7,5.8-17.5c3.6-3.7,9.1-5.7,16.6-5.9c7.5,0.2,13,2.2,16.6,5.9c3.7,3.8,5.8,9.4,5.8,17.5v54.8c0,0.8,0.3,1.5,0.9,2
			c0.6,0.5,1.4,0.8,2.2,0.8h10.1c0.8,0,1.6-0.3,2.1-0.8c0.6-0.5,0.9-1.3,0.9-2L657.4,64.2z"/>
		<path class="st2" d="M471.4,38c-0.1-0.1-0.1-0.1-0.2-0.2c-5.8-5.3-15-8.6-25.6-8.6c-0.2,0-0.4,0-0.6,0c-8.7,0-17.4,1.8-24.9,8.3
			l0,0v-5.7h0V3.2c0-0.7-0.3-1.5-0.9-2c-0.6-0.6-1.4-0.8-2.1-0.8h-10c-0.8,0-1.6,0.3-2.2,0.8c-0.6,0.5-0.9,1.3-0.9,2v28.6l0,0v60.7
			l0,0V121c0,0.8,0.3,1.5,0.9,2c0.6,0.5,1.4,0.8,2.2,0.8h10c0.8,0,1.6-0.3,2.1-0.8c0.6-0.5,0.9-1.3,0.9-2v-5.9
			c6.7,7.4,16.2,10,24.9,10h0.6c10.6,0,19.9-3.3,25.6-8.6c10.7-10.2,13.2-25.7,13.2-40.2C484.5,61.9,482,48.1,471.4,38z M468.4,76.3
			c0,0,0,0,0,0.2v0c0,0,0,0.1,0,0.2c0,9-1,17.9-4.4,24.2c-3.4,6.1-8.8,10.1-19.4,10.3c-0.1,0-0.2,0-0.4,0h-0.2
			c-10.6-0.1-16.1-4.2-19.5-10.3c-3.5-6.3-4.4-15.3-4.4-24.3V76c0-9,1-16.3,4.4-22.6c3.4-6.2,8.9-10.2,19.5-10.3c0.1,0,0.1,0,0.1,0
			c0,0,0.1,0,0.2,0h0.2c10.6,0.1,16.1,4.1,19.5,10.3c3.5,6.3,4.4,13.6,4.4,22.6V76.3z"/>
		<path class="st2" d="M216.6,60C216.6,60,216.6,60,216.6,60c0-9.7-3.2-17.9-9.9-23.4c-6.8-5.6-16.4-8.2-29-8.2h-0.4
			c-0.1,0-0.1,0-0.2,0c-13.1,0-23.5,2.8-31.5,11.2l0,0l-0.5,0.6c-0.6,0.7-1.2,1.3-1.7,2.1c0,0,0,0,0,0l-0.8,1
			c-0.5,0.6-0.8,1.3-0.6,2.1c0.1,0.8,0.5,1.5,1.1,2l0.5,0.4c0.2,0.2,0.4,0.4,0.6,0.6l1.8,1.5l4.7,4.1c0.6,0.5,1.4,0.8,2.2,0.8
			c0.8,0,1.5-0.4,2-1l3-3.6v0c1.9-2,3.8-3.5,6.2-4.5c3.3-1.5,7.6-2.1,13.7-2.2l0.1,0h0.2c8.8,0,14.2,1.8,17.3,4.5
			c3.1,2.7,4.7,6.7,4.7,13.1c0,0,0,0.1,0,0.3v5.9H174c-10.5,0-19.2,2.4-25.5,7.3c-6.3,4.8-9.8,12.2-9.8,20.8v0.3
			c0,7.2,2.7,14.3,7.6,19.2c6.6,6.5,15.5,8.9,28.8,8.9c0,0,0.1,0,0.1,0h6.7c12.2,0,21-3,26.7-9.1c5.6-6.1,7.9-14.9,7.9-25.9V60.1V60
			z M199.9,89.2c0,7.6-1.7,11.8-3.9,13.8c-5.4,5-12,5.7-20.2,5.7c0,0,0,0-0.1,0c0,0-0.1,0-0.2,0c-7.8,0-12.9-1.4-15.9-3.5
			c-2.8-2-4.2-4.8-4.3-9.8v-0.2c0-4.9,1.5-7.9,4.3-10.1c2.9-2.2,7.8-3.7,15.2-3.7c0,0,0,0,0.1,0h24.8V89.2z"/>
		<path class="st2" d="M569,60.1C569,60.1,569,60.1,569,60.1c0-9.7-3.2-17.9-9.9-23.4c-6.7-5.5-16.5-8.2-29-8.2h-0.4
			c0,0-0.1,0-0.2,0c-13.1,0-23.6,2.8-31.5,11.3l0,0l-0.5,0.5c-0.6,0.7-1.2,1.3-1.8,2.1c0,0,0,0,0,0l-0.8,1c-0.5,0.6-0.7,1.3-0.6,2.1
			c0.1,0.8,0.5,1.5,1.1,2.1l0.5,0.4c0.2,0.2,0.4,0.4,0.6,0.6l1.8,1.5L503,54c0.6,0.5,1.4,0.8,2.1,0.8c0.8,0,1.5-0.4,2-0.9l3-3.6l0,0
			c1.9-2.1,3.8-3.5,6.2-4.5c3.3-1.5,7.6-2.1,13.7-2.2h0.1l0.2,0c8.8,0,14.2,1.8,17.3,4.5c3.1,2.7,4.7,6.7,4.7,13.1c0,0,0,0.1,0,0.3
			v5.9h-25.9c-10.5,0-19.2,2.4-25.5,7.3c-6.3,4.8-9.8,12.2-9.8,20.8v0.3c0,7.2,2.7,14.3,7.6,19.1c6.6,6.5,15.5,8.9,28.8,8.9
			c0,0,0.1,0,0.2,0h6.8c12.3,0,21-3,26.7-9.1c5.7-6.1,7.9-14.9,7.9-25.9V60.3V60.1z M507.8,95.6v-0.2c0.1-4.9,1.5-7.9,4.3-10.1
			c2.9-2.3,7.9-3.7,15.2-3.7c0,0,0,0,0.1,0h24.8v7.7c0,7.6-1.7,11.8-3.9,13.8c-5.4,5-12,5.7-20.2,5.7c0,0,0,0-0.1,0
			c-0.1,0-0.1,0-0.2,0c-7.9,0-13-1.3-15.9-3.4C509.3,103.4,507.9,100.5,507.8,95.6z"/>
		<path class="st2" d="M60.8,28.7H43.8l0-17.3l0,0V3c0-1.5-1.3-2.7-2.9-2.7H30.5c-0.8,0-1.5,0.3-2.1,0.8c-0.6,0.5-0.9,1.2-0.9,1.9
			v15.5l0,0v81.1c0,6.6,1.9,12.5,6.1,17c4,4.3,10.4,7.1,17.9,7.1h0h5v-0.1h4.3c0.8,0,1.5-0.3,2-0.9c0.5-0.6,0.8-1.4,0.8-2.2v-10
			c0-0.8-0.3-1.6-0.8-2.2c-0.6-0.6-1.3-0.9-2-0.9h-7.9c-1.6-0.1-2.9-0.3-4-0.6c-0.7-0.3-1.1-0.5-1.6-0.8c-0.5-0.3-0.7-0.5-1.2-0.9
			c-1.5-1.6-2.4-4.1-2.4-7.9V44.8h17.1c0.8,0,1.5-0.3,2-0.9c0.5-0.6,0.8-1.4,0.8-2.2v-10c0-0.8-0.3-1.6-0.8-2.2
			C62.3,29,61.6,28.7,60.8,28.7z"/>
		<path class="st2" d="M134.5,40.5l-0.9-1.1c0-0.1-0.1-0.2-0.2-0.4l-0.6-0.6h0l-0.8-0.8l-0.7-0.7l0,0c-5.8-6.1-13.1-8.7-20.8-8.7
			c-0.1,0-0.3,0-0.6,0c-5.5,0-11.9,2.5-15.8,7.1l-2.7,3.2v-1.3v-5.8c0-0.8-0.3-1.5-0.9-2c-0.6-0.5-1.3-0.8-2.1-0.8h-10
			c-0.8,0-1.6,0.3-2.1,0.8c-0.6,0.5-0.9,1.3-0.9,2v5.8v83.6c0,0.7,0.3,1.5,0.9,2c0.6,0.5,1.4,0.8,2.1,0.8h1.7c0.1,0,0.1,0,0.2,0h6.3
			c0,0,0.1,0,0.2,0h1.6c0.8,0,1.6-0.3,2.1-0.8c0.6-0.5,0.9-1.3,0.9-2v-1.6c0,0,0,0,0,0v-53c0-0.1,0-0.1,0-0.2v-4.3
			c0.3-4.9,1.9-9.4,4.5-12.6c2.7-3.4,6.8-5.6,12.2-5.7c2.9,0,4.8,0.4,6.4,1c1.5,0.7,3.2,1.9,5.3,4.1l0.5,0.5l2.2,2.4
			c0.5,0.6,1.3,0.9,2,0.9c0.8,0,1.6-0.3,2.2-0.8l7.5-6.8c0.6-0.5,1-1.3,1-2.1C135.2,41.9,135,41.1,134.5,40.5z"/>
		<path class="st2" d="M385.3,74.9C385.2,74.9,385.2,74.8,385.3,74.9l-0.1-0.1c-5.8-4-13.2-5.5-21.1-6.1l-14.9-1.3
			c-6.2-0.5-10-1.8-12.2-3.5c-1.9-1.5-3.1-3.8-3.1-7.3c0,0,0-0.1,0-0.1l0,0v-0.2c0-4.2,1.7-7.3,4.6-9.4c3.1-2.2,8.1-3.7,15.1-3.7
			h0.1l0,0c9,0,16.4,2.1,22.6,6.1h0L380,52c0.6,0.4,1.4,0.6,2.1,0.4c0.8-0.2,1.4-0.6,1.9-1.3l5.6-8.1c0.4-0.6,0.6-1.5,0.5-2.2
			c-0.1-0.4-0.2-0.8-0.4-1.2c-0.2-0.4-0.5-0.7-0.9-1l-0.6-0.4c-8.9-6.3-21.2-9.9-34.5-9.9c-10.6,0-19.7,2.5-26.3,7.5
			c-6.6,4.8-10.4,12.1-10.4,20.4v0.1v0.1v0.2c0,7.3,2.7,13.8,8.1,18.2c5.5,4.5,13.2,6.9,23,7.7l15.3,1.2c5.6,0.5,9.1,1.8,11.1,3.5
			c1.8,1.5,2.9,3.8,2.9,7.5c0,0,0,0.1,0,0.2v0c0,4.7-1.9,7.9-5.4,10.1c-3.7,2.4-9.8,3.8-18.3,3.8h0c0,0-0.1,0-0.2,0h-0.1
			c-11.2,0-19.1-2.5-25.3-7.7l-3.2-2.7c-0.6-0.5-1.4-0.7-2.1-0.6c-0.8,0.1-1.5,0.5-2,1.1l-6.4,7.7c-0.5,0.6-0.8,1.4-0.7,2.2
			c0,0.8,0.4,1.5,1,2l3,2.6v0c0.1,0,0.1,0.1,0.1,0.2l0.4,0.3l0-0.1c9.4,6.8,21.1,10.1,35.4,10.1h0.2c11.8,0,21.8-2.6,29.1-7.6
			c7.2-5,11.5-12.6,11.5-21.4v-0.4C394.4,85.6,391,78.9,385.3,74.9z"/>
		<path class="st2" d="M751.9,119.8l-12.5-17.6l-25-36.5l19.4-20.6l11.3-11.9l0.7-0.8c1.3-1.3,0.7-2.7,0.1-3.2
			c-0.6-0.5-1.4-0.8-2.2-0.8h-12.9c-0.8,0-1.8,0.6-2.4,1.1c0,0,0,0,0,0l-43.6,46.4V37.1V2.9c0-0.8-0.3-1.5-0.9-2
			c-0.5-0.6-1.3-0.9-2.1-0.9h-10c-0.8,0-1.6,0.3-2.1,0.9c-0.6,0.5-0.9,1.3-0.9,2v34.2l0,0v83.8c0,0.8,0.3,1.5,0.9,2
			c0.5,0.5,1.3,0.8,2.1,0.8h10c0.8,0,1.6-0.3,2.1-0.8c0.6-0.5,0.9-1.3,0.9-2V97.1l18.9-20.5l12.7,19h0l17.8,26.7
			c0.4,0.6,1.1,1.5,2.5,1.5h13c0.8,0,1.6-0.3,2.2-0.9C752.5,122.5,752.9,121.1,751.9,119.8z"/>
	</g>
	<g>
		<path class="st2" d="M640.3,1.5h1.7l2.6,7.7l2.6-7.7h1.7v9.1h-1.2V5.2c0-0.2,0-0.5,0-0.9c0-0.4,0-0.9,0-1.4l-2.6,7.7H644l-2.6-7.7
			v0.3c0,0.2,0,0.6,0,1c0,0.5,0,0.8,0,1v5.4h-1.2V1.5z"/>
		<path class="st2" d="M654.3,1.5h4.2c0.7,0,1.2,0.1,1.7,0.3c0.8,0.4,1.3,1.1,1.3,2.1c0,0.5-0.1,1-0.3,1.3c-0.2,0.3-0.5,0.6-1,0.8
			c0.4,0.2,0.7,0.3,0.8,0.6c0.2,0.2,0.3,0.6,0.3,1.1l0.1,1.2c0,0.4,0,0.6,0.1,0.8c0.1,0.3,0.2,0.5,0.4,0.5v0.2h-1.5
			c-0.1-0.1-0.1-0.2-0.1-0.3c0-0.1,0-0.4-0.1-0.7L659.9,8c0-0.6-0.2-1-0.7-1.2c-0.2-0.1-0.6-0.2-1.1-0.2h-2.7v3.9h-1.2V1.5z
			 M658.3,5.7c0.6,0,1-0.1,1.4-0.3c0.3-0.2,0.5-0.6,0.5-1.3c0-0.6-0.2-1.1-0.7-1.3c-0.2-0.1-0.6-0.2-1-0.2h-2.9v3.1H658.3z"/>
		<path class="st2" d="M651.7,10.5c-0.4,0-0.6-0.3-0.6-0.7c0-0.4,0.3-0.7,0.6-0.7c0.4,0,0.6,0.3,0.6,0.7
			C652.3,10.3,652.1,10.5,651.7,10.5L651.7,10.5z"/>
		<path class="st2" d="M664.1,10.5c-0.4,0-0.6-0.3-0.6-0.7c0-0.4,0.3-0.7,0.6-0.7c0.4,0,0.6,0.3,0.6,0.7
			C664.8,10.3,664.5,10.5,664.1,10.5L664.1,10.5z"/>
	</g>
</g>
</svg>
